<?xml version="1.0" encoding="utf-8" standalone="no"?>
<!DOCTYPE svg PUBLIC "-//W3C//DTD SVG 1.1//EN" "http://www.w3.org/Graphics/SVG/1.1/DTD/svg11.dtd">
<svg version="1.1" width="612pt" height="792pt" viewBox="0 0 612 792" overflow="visible" xmlns="http://www.w3.org/2000/svg">
  <path d="M342.1789,374.3368 C342.4617,371.5471 339.2993,368.3847 336.5096,368.6675 C333.7199,368.3847 330.5575,371.5471 330.8403,374.3368 C330.5575,377.1265 333.7199,380.2889 336.5096,380.0061 C339.2993,380.2889 342.4617,377.1265 342.1789,374.3368 z" stroke="#000000" stroke-width="0.24" fill="none" />
  <path d="M342.1789,417.6632 C342.4617,414.8735 339.2993,411.7111 336.5096,411.9939 C333.7199,411.7111 330.5575,414.8735 330.8403,417.6632 C330.5575,420.4529 333.7199,423.6153 336.5096,423.3325 C339.2993,423.6153 342.4617,420.4529 342.1789,417.6632 z" stroke="#000000" stroke-width="0.24" fill="none" />
  <path d="M315.1755,358.7462 C315.4583,355.9566 312.2958,352.7941 309.5062,353.0769 C306.7165,352.7941 303.5541,355.9566 303.8369,358.7462 C303.5541,361.5359 306.7165,364.6983 309.5062,364.4155 C312.2958,364.6983 315.4583,361.5359 315.1755,358.7462 z" stroke="#000000" stroke-width="0.24" fill="none" />
  <path d="M320.1732,396 C320.2611,392.694 318.7608,388.7168 316.022,385.978 C313.2832,383.2392 309.306,381.7389 306,381.8268 C302.694,381.7389 298.7168,383.2392 295.978,385.978 C293.2392,388.7168 291.7389,392.694 291.8268,396 C291.7389,399.306 293.2392,403.2832 295.978,406.022 C298.7168,408.7608 302.694,410.2611 306,410.1732 C309.306,410.2611 313.2832,408.7608 316.022,406.022 C318.7608,403.2832 320.2611,399.306 320.1732,396 z" stroke="#000000" stroke-width="0.24" fill="none" />
  <path d="M277.6535,380.4095 C277.9364,377.6198 274.7739,374.4573 271.9843,374.7401 C269.1946,374.4573 266.0321,377.6198 266.315,380.4095 C266.0321,383.1991 269.1946,386.3615 271.9843,386.0787 C274.7739,386.3615 277.9364,383.1991 277.6535,380.4095 z" stroke="#000000" stroke-width="0.24" fill="none" />
  <path d="M277.6535,411.5905 C277.9364,408.8009 274.7739,405.6385 271.9843,405.9213 C269.1946,405.6385 266.0321,408.8009 266.315,411.5905 C266.0321,414.3802 269.1946,417.5427 271.9843,417.2599 C274.7739,417.5427 277.9364,414.3802 277.6535,411.5905 z" stroke="#000000" stroke-width="0.24" fill="none" />
  <path d="M315.1755,433.2538 C315.4583,430.4641 312.2958,427.3017 309.5062,427.5845 C306.7165,427.3017 303.5541,430.4641 303.8369,433.2538 C303.5541,436.0434 306.7165,439.2059 309.5062,438.9231 C312.2958,439.2059 315.4583,436.0434 315.1755,433.2538 z" stroke="#000000" stroke-width="0.24" fill="none" />
  <path d="M282.1606,441.8929 C282.2172,441.335 281.5847,440.7025 281.0268,440.7591 C280.4688,440.7025 279.8364,441.335 279.8929,441.8929 C279.8364,442.4508 280.4688,443.0833 281.0268,443.0268 C281.5847,443.0833 282.2172,442.4508 282.1606,441.8929 z" stroke="#000000" stroke-width="0.24" fill="none" />
  <path d="M270.8221,441.8929 C270.8786,441.335 270.2461,440.7025 269.6882,440.7591 C269.1302,440.7025 268.4978,441.335 268.5543,441.8929 C268.4978,442.4508 269.1302,443.0833 269.6882,443.0268 C270.2461,443.0833 270.8786,442.4508 270.8221,441.8929 z" stroke="#000000" stroke-width="0.24" fill="none" />
  <path d="M276.4913,441.8929 C276.5479,441.335 275.9154,440.7025 275.3575,440.7591 C274.7995,440.7025 274.1671,441.335 274.2236,441.8929 C274.1671,442.4508 274.7995,443.0833 275.3575,443.0268 C275.9154,443.0833 276.5479,442.4508 276.4913,441.8929 z" stroke="#000000" stroke-width="0.24" fill="none" />
  <path d="M282.5405,441.4677 L282.5382,441.4575 L282.4799,441.291 L282.4034,441.1321 L282.3096,440.9828 L282.1996,440.8448 L282.0749,440.7202 L281.937,440.6102 L281.7876,440.5163 L281.6287,440.4398 L281.4622,440.3815 L281.452,440.3792 L281.452,438.7635 L281.6493,438.7635 L282.7995,439.2399 L283.6798,440.1202 L284.1563,441.2704 L284.1563,441.4677 z" stroke="#000000" stroke-width="0.24" fill="none" />
  <path d="M334.1954,442.6299 L339.6844,442.6299 L339.6844,444.6309 L342.4108,444.6309 L342.4108,439.7786 L339.6844,439.7786 L339.6844,441.7795 L334.1954,441.7795 L334.1954,439.6319 L330.8942,439.6319 L330.8942,444.7776 L334.1954,444.7776 z" stroke="#000000" stroke-width="0.24" fill="none" />
  <path d="M319.988,446.9753 L320.0576,446.9287 L322.5297,444.4567 L322.5297,444.7776 L325.8309,444.7776 L325.8309,439.6319 L322.5297,439.6319 L322.5297,443.2541 L319.6105,446.1732 L292.9323,446.1732 L292.9323,431.269 L307.0832,417.1181 L313.931,417.1181 L331.8361,435.0232 L331.9057,435.0697 L331.9831,435.1018 L332.0652,435.1181 L343.669,435.1181 L343.7511,435.1018 L343.8285,435.0697 L343.8982,435.0232 L352.5974,426.324 L352.6439,426.2544 L352.676,426.177 L352.6923,426.0948 L352.6923,418.8408 L354.7776,418.8408 L354.7776,415.5395 L349.6319,415.5395 L349.6319,418.8408 L351.8419,418.8408 L351.8419,425.8768 L343.451,434.2677 L332.2832,434.2677 L314.7084,416.6929 L325.2374,406.164 L325.2839,406.0944 L325.316,406.017 L325.3323,405.9348 L325.3323,384.2511 L325.316,384.1689 L325.2839,384.0915 L325.2374,384.0219 L321.7323,380.5168 L321.7323,366.4691 L324.5174,363.684 L324.5639,363.6143 L324.596,363.537 L324.6123,363.4548 L324.6123,352.3682 L325.8309,352.3682 L325.8309,347.2224 L322.5297,347.2224 L322.5297,352.3682 L323.7619,352.3682 L323.7619,363.2368 L320.9768,366.0219 L320.9303,366.0915 L320.8983,366.1689 L320.8819,366.2511 L320.8819,380.7348 L320.8983,380.817 L320.9303,380.8943 L320.9768,380.964 L324.4819,384.4691 L324.4819,405.7168 L313.931,416.2677 L306.8652,416.2677 L306.7831,416.2841 L306.7057,416.3161 L306.6361,416.3627 L292.1768,430.8219 L292.1303,430.8915 L292.0983,430.9689 L292.0819,431.0511 L292.0819,446.4223 L290.531,447.9733 L270.573,447.9733 L270.1134,447.5137 L270.1134,443.4067 L270.1236,443.4043 L270.2901,443.3461 L270.449,443.2695 L270.5984,443.1757 L270.7363,443.0657 L270.861,442.941 L270.971,442.8031 L271.0648,442.6538 L271.1414,442.4948 L271.1996,442.3284 L271.2389,442.1564 L271.2586,441.9811 L271.2586,441.8047 L271.2389,441.6295 L271.1996,441.4575 L271.1414,441.291 L271.0648,441.1321 L270.971,440.9828 L270.861,440.8448 L270.7363,440.7202 L270.5984,440.6102 L270.449,440.5163 L270.2901,440.4398 L270.1236,440.3815 L269.9517,440.3423 L269.7764,440.3225 L269.6,440.3225 L269.4247,440.3423 L269.2528,440.3815 L269.0863,440.4398 L268.9274,440.5163 L268.778,440.6102 L268.6401,440.7202 L268.5154,440.8448 L268.4055,440.9828 L268.3116,441.1321 L268.2351,441.291 L268.1768,441.4575 L268.1376,441.6295 L268.1178,441.8047 L268.1178,441.9811 L268.1376,442.1564 L268.1768,442.3284 L268.2351,442.4948 L268.3116,442.6538 L268.4055,442.8031 L268.5154,442.941 L268.6401,443.0657 L268.778,443.1757 L268.9274,443.2695 L269.0863,443.3461 L269.2528,443.4043 L269.263,443.4067 L269.263,447.7317 L269.2794,447.8138 L269.3114,447.8912 L269.3579,447.9608 L270.1258,448.7287 L270.1954,448.7753 L270.2728,448.8073 L270.355,448.8236 L290.749,448.8236 L290.8311,448.8073 L290.9085,448.7753 L290.9781,448.7287 L292.6832,447.0237 L319.8285,447.0237" stroke="#000000" stroke-width="0.24" fill="none" />
  <path d="M357.0789,452.404 L359.0316,452.0156 L359.1337,451.9733 L360.789,450.8672 L360.8672,450.7891 L361.9733,449.1337 L362.0156,449.0316 L362.404,447.0789 L362.4095,447.0237 L362.4095,432.9558 L362.387,432.8452 L362.3232,432.7522 L362.2282,432.6914 L362.117,432.6725 L362.0072,432.6984 L361.9162,432.7652 L361.8767,432.8274 L352.6985,442.0056 L352.6362,442.0997 L352.6155,442.2061 L352.6155,444.941 L352.3781,445.5141 L351.9396,445.9526 L351.3665,446.19 L348.02,446.19 L347.4469,445.9526 L347.0084,445.5141 L346.771,444.941 L346.771,439.4684 L347.0084,438.8954 L347.4469,438.4569 L348.02,438.2195 L350.7549,438.2195 L350.8655,438.1971 L350.9554,438.1365 L358.1198,430.972 L358.1821,430.878 L358.2029,430.7716 L358.2029,376.0877 L358.1804,375.9771 L358.1166,375.8841 L358.0216,375.8233 L357.9104,375.8044 L357.8006,375.8303 L357.719,375.8872 L354.272,379.3342 L354.2097,379.4282 L354.189,379.5346 L354.189,388.4715 L354.2115,388.5821 L354.2752,388.6751 L354.3703,388.7359 L354.4725,388.7549 L354.941,388.7549 L355.5141,388.9923 L355.9526,389.4308 L356.19,390.0039 L356.19,393.3505 L355.9526,393.9235 L355.5141,394.3621 L354.941,394.5994 L349.4684,394.5994 L348.8954,394.3621 L348.4569,393.9235 L348.2195,393.3505 L348.2195,390.0039 L348.4569,389.4308 L348.8954,388.9923 L349.4684,388.7549 L349.937,388.7549 L350.0476,388.7325 L350.1406,388.6687 L350.2014,388.5737 L350.2205,388.4715 L350.2205,378.2006 L350.5226,377.4713 L358.1198,369.8741 L358.1821,369.78 L358.2029,369.6736 L358.2029,344.2263 L358.1804,344.1157 L358.1198,344.0258 L358.0082,343.9142 L357.9142,343.8519 L357.8078,343.8312 L351.961,343.8312 L351.8504,343.8537 L351.7574,343.9174 L351.6966,344.0125 L351.6775,344.1147 L351.6775,345.7495 L351.7,345.86 L351.7638,345.9531 L351.8525,346.0114 L351.9396,346.0474 L352.3781,346.486 L352.6155,347.059 L352.6155,352.5316 L352.3781,353.1046 L351.9396,353.5432 L351.3665,353.7805 L348.02,353.7805 L347.4469,353.5432 L347.0084,353.1046 L346.771,352.5316 L346.771,347.059 L347.0084,346.486 L347.4469,346.0474 L347.534,346.0114 L347.6276,345.9483 L347.6891,345.8538 L347.709,345.7495 L347.709,345.2524 L347.6866,345.1418 L347.626,345.052 L346.4882,343.9142 L346.3942,343.8519 L346.2878,343.8312 L285.4924,343.8312 L285.3818,343.8537 L285.292,343.9142 L258.5744,370.6318 L258.5121,370.7259 L258.4914,370.8322 L258.4914,386.9536 L258.5138,387.0642 L258.5744,387.1541 L264.446,393.0257 L264.54,393.088 L264.6464,393.1087 L274.9018,393.1087 L275.6311,393.4108 L290.5893,408.3689 L290.8914,409.0982 L290.8914,417.938 L290.5893,418.6673 L277.4248,431.8318 L277.3625,431.9259 L277.3418,432.0323 L277.3418,439.334 L277.3642,439.4446 L277.4248,439.5345 L277.9917,440.1014 L278.0858,440.1637 L278.1967,440.1844 L278.3069,440.1602 L278.3926,440.1014 L279.2541,439.2399 L280.4043,438.7635 L280.6016,438.7635 L280.6016,440.3792 L280.5914,440.3815 L280.4249,440.4398 L280.266,440.5163 L280.1166,440.6102 L279.9787,440.7202 L279.854,440.8448 L279.744,440.9828 L279.6502,441.1321 L279.5737,441.291 L279.5154,441.4575 L279.4761,441.6295 L279.4564,441.8047 L279.4564,441.9811 L279.4761,442.1564 L279.5154,442.3284 L279.5737,442.4948 L279.6502,442.6538 L279.744,442.8031 L279.854,442.941 L279.9787,443.0657 L280.1166,443.1757 L280.266,443.2695 L280.4249,443.3461 L280.5914,443.4043 L280.6016,443.4067 L280.6016,445.0224 L280.4043,445.0224 L279.2541,444.546 L278.3926,443.6844 L278.2985,443.6221 L278.1876,443.6015 L278.0775,443.6257 L277.9917,443.6844 L277.1302,444.546 L275.98,445.0224 L274.735,445.0224 L273.5848,444.546 L272.7233,443.6844 L272.6292,443.6221 L272.5183,443.6015 L272.4081,443.6257 L272.3224,443.6844 L271.7555,444.2514 L271.6932,444.3454 L271.6725,444.4518 L271.6725,446.1307 L271.6949,446.2413 L271.7587,446.3344 L271.8537,446.3951 L271.9559,446.4142 L289.7678,446.4142 L289.8784,446.3918 L289.9682,446.3312 L290.4398,445.8596 L290.5021,445.7655 L290.5229,445.6591 L290.5229,430.6982 L290.825,429.9689 L305.7831,415.0108 L306.5124,414.7087 L313.1678,414.7087 L313.2784,414.6862 L313.3682,414.6257 L322.8398,405.1541 L322.9021,405.06 L322.9229,404.9536 L322.9229,385.2322 L322.9004,385.1217 L322.8398,385.0318 L319.6249,381.8169 L319.3228,381.0876 L319.3228,365.8983 L319.6249,365.1689 L322.1198,362.6741 L322.1821,362.58 L322.2029,362.4736 L322.2029,354.1097 L322.1804,353.9991 L322.1166,353.9061 L322.0279,353.8478 L321.6465,353.6898 L321.208,353.2513 L320.9706,352.6783 L320.9706,346.9123 L321.208,346.3393 L321.6465,345.9007 L322.2196,345.6634 L326.1411,345.6634 L326.7141,345.9007 L327.1526,346.3393 L327.39,346.9123 L327.39,352.6783 L327.1526,353.2513 L326.7141,353.6898 L326.3463,353.8422 L326.2528,353.9052 L326.1913,353.9998 L326.1714,354.1041 L326.1714,363.8076 L325.8693,364.5369 L323.3744,367.0318 L323.3121,367.1259 L323.2914,367.2322 L323.2914,379.7536 L323.3138,379.8642 L323.3744,379.9541 L326.5893,383.1689 L326.8914,383.8983 L326.8914,406.2876 L326.5893,407.0169 L317.1137,416.4925 L317.0514,416.5865 L317.0307,416.6974 L317.0549,416.8076 L317.1137,416.8934 L332.846,432.6257 L332.94,432.688 L333.0464,432.7087 L342.6878,432.7087 L342.7984,432.6862 L342.8882,432.6257 L350.1998,425.3141 L350.2621,425.22 L350.2829,425.1136 L350.2829,420.6833 L350.2604,420.5727 L350.1966,420.4797 L350.1016,420.4189 L349.9994,420.3998 L349.3218,420.3998 L348.7487,420.1624 L348.3102,419.7239 L348.0728,419.1509 L348.0728,415.2294 L348.3102,414.6564 L348.7487,414.2178 L349.3218,413.9805 L355.0877,413.9805 L355.6608,414.2178 L356.0993,414.6564 L356.3367,415.2294 L356.3367,419.1509 L356.0993,419.7239 L355.6608,420.1624 L355.0877,420.3998 L354.5348,420.3998 L354.4243,420.4222 L354.3312,420.4861 L354.2704,420.5811 L354.2514,420.6833 L354.2514,426.4476 L353.9493,427.1769 L344.7511,436.3751 L344.0218,436.6772 L331.7124,436.6772 L330.9831,436.3751 L313.3682,418.7602 L307.8464,418.6772 L307.7359,418.6996 L307.646,418.7602 L294.5744,431.8318 L294.5121,431.9259 L294.4914,432.0323 L294.4914,444.3307 L294.5138,444.4413 L294.5776,444.5343 L294.6726,444.5951 L294.7748,444.6142 L318.8473,444.6142 L318.9579,444.5918 L319.0477,444.5312 L320.8876,442.6913 L320.9499,442.5972 L320.9706,442.4908 L320.9706,439.3217 L321.208,438.7487 L321.6465,438.3102 L322.2196,438.0728 L326.1411,438.0728 L326.7141,438.3102 L327.1526,438.7487 L327.39,439.3217 L327.39,445.0877 L327.1526,445.6608 L326.7141,446.0993 L326.1411,446.3367 L322.972,446.3367 L322.8614,446.3591 L322.7715,446.4197 L320.9106,448.2806 L320.1813,448.5827 L293.4464,448.5827 L293.3359,448.6052 L293.246,448.6657 L291.8311,450.0806 L291.1018,450.3827 L270.0022,450.3827 L269.2729,450.0806 L268.006,448.8138 L267.7039,448.0845 L267.7039,444.4518 L267.6815,444.3412 L267.6209,444.2514 L267.0352,443.6656 L266.5588,442.5154 L266.5588,441.2704 L267.0352,440.1202 L267.9155,439.2399 L269.0657,438.7635 L270.3107,438.7635 L271.4609,439.2399 L272.3224,440.1014 L272.4165,440.1637 L272.5274,440.1844 L272.6376,440.1602 L272.7233,440.1014 L273.2902,439.5345 L273.3525,439.4405 L273.3733,439.334 L273.3733,426.4026 L273.3508,426.2921 L273.2902,426.2022 L270.3021,423.2141 L270,422.4848 L270,422.357 L269.9776,422.2465 L269.9138,422.1534 L269.7899,422.0832 L267.8531,421.5642 L265.4124,420.1552 L263.4197,418.1624 L262.0106,415.7218 L261.2812,412.9997 L261.2812,410.1815 L262.0106,407.4594 L263.4197,405.0187 L265.4124,403.026 L267.8531,401.6169 L270.5752,400.8875 L273.3933,400.8875 L276.1155,401.6169 L278.5561,403.026 L280.5488,405.0187 L281.9579,407.4594 L282.6873,410.1815 L282.6873,412.9997 L281.9579,415.7218 L280.5488,418.1624 L278.5561,420.1552 L276.1155,421.5642 L275.13,421.8283 L275.029,421.8786 L274.9556,421.9643 L274.9215,422.0719 L274.932,422.1842 L275.0029,422.3026 L277.0397,424.3393 L277.3418,425.0686 L277.3418,425.6182 L277.3642,425.7288 L277.428,425.8218 L277.523,425.8826 L277.6342,425.9015 L277.744,425.8755 L277.8257,425.8186 L286.8398,416.8044 L286.9021,416.7104 L286.9229,416.604 L286.9229,410.4323 L286.9004,410.3217 L286.8398,410.2318 L273.7682,397.1602 L273.6742,397.0979 L273.5678,397.0772 L263.3124,397.0772 L262.5831,396.7751 L254.825,389.0169 L254.5229,388.2876 L254.5229,369.4982 L254.825,368.769 L283.4291,340.1648 L283.4988,340.1359 L283.5923,340.0729 L283.6539,339.9783 L283.6737,339.8672 L283.6486,339.7573 L283.5826,339.6658 L283.4861,339.6073 L283.3903,339.5906 L254.9764,339.5906 L254.9211,339.596 L252.9685,339.9844 L252.8663,340.0267 L251.211,341.1328 L251.1328,341.211 L250.0267,342.8663 L249.9844,342.9685 L249.596,344.9211 L249.5906,344.9764 L249.5906,447.0237 L249.596,447.0789 L249.9844,449.0316 L250.0267,449.1337 L251.1328,450.7891 L251.211,450.8672 L252.8663,451.9733 L252.9685,452.0156 L254.9211,452.404 L254.9764,452.4095 L357.0237,452.4095 z" stroke="#000000" stroke-width="0.24" fill="none" />
  <path d="M334.1954,350.2205 L339.6844,350.2205 L339.6844,352.2215 L342.4108,352.2215 L342.4108,347.3691 L339.6844,347.3691 L339.6844,349.3701 L334.1954,349.3701 L334.1954,347.2224 L330.8942,347.2224 L330.8942,352.3682 L334.1954,352.3682 z" stroke="#000000" stroke-width="0.24" fill="none" />
  <path d="M308.0971,443.9568 L305.375,443.2274 L302.9344,441.8184 L300.9416,439.8257 L299.5325,437.385 L298.8031,434.6629 L298.8031,433.679 L300.3721,433.679 L300.3842,433.9267 L300.4282,434.3734 L300.4941,434.8175 L300.5817,435.2578 L300.6908,435.6934 L300.8211,436.123 L300.9724,436.5457 L301.1441,436.9604 L301.3361,437.3663 L301.5477,437.7622 L301.7785,438.1473 L302.028,438.5206 L302.2954,438.8812 L302.5802,439.2282 L302.8817,439.5609 L303.1991,439.8783 L303.5318,440.1798 L303.8788,440.4646 L304.2394,440.732 L304.6127,440.9814 L304.9978,441.2122 L305.3937,441.4239 L305.7996,441.6158 L306.2143,441.7877 L306.637,441.9389 L307.0667,442.0692 L307.5021,442.1783 L307.9424,442.2659 L308.3865,442.3318 L308.8333,442.3758 L309.081,442.3879 L309.081,443.9568 z" stroke="#000000" stroke-width="0.24" fill="none" />
  <path d="M360.5639,431.9123 L360.596,431.8349 L360.6123,431.7528 L360.6123,343.2451 L360.596,343.1629 L360.5639,343.0855 L360.5174,343.0159 L359.0182,341.5167 L358.9485,341.4702 L358.8711,341.4381 L358.789,341.4218 L284.5112,341.4218 L284.4291,341.4381 L284.3517,341.4702 L284.282,341.5167 L256.1768,369.6219 L256.1303,369.6915 L256.0983,369.7689 L256.0819,369.851 L256.0819,387.9348 L256.0983,388.017 L256.1303,388.0944 L256.1768,388.164 L263.4361,395.4232 L263.5057,395.4697 L263.5831,395.5018 L263.6652,395.5181 L274.331,395.5181 L288.4819,409.6691 L288.4819,417.3672 L275.7827,430.0664 L275.7827,425.4214 L275.7664,425.3393 L275.7343,425.2619 L275.6878,425.1923 L272.4095,421.914 L272.4095,420.7247 L272.6572,420.7126 L273.1039,420.6685 L273.548,420.6027 L273.9883,420.5151 L274.4238,420.406 L274.8535,420.2757 L275.2762,420.1245 L275.6909,419.9526 L276.0968,419.7607 L276.4927,419.549 L276.8778,419.3182 L277.2511,419.0688 L277.6117,418.8014 L277.9587,418.5166 L278.2914,418.2151 L278.6088,417.8976 L278.9103,417.565 L279.1951,417.218 L279.4625,416.8574 L279.7119,416.4841 L279.9427,416.099 L280.1544,415.7031 L280.3463,415.2972 L280.5181,414.8824 L280.6694,414.4597 L280.7997,414.0301 L280.9088,413.5946 L280.9964,413.1543 L281.0623,412.7102 L281.1062,412.2635 L281.1283,411.815 L281.1283,411.3661 L281.1062,410.9177 L281.0623,410.4709 L280.9964,410.0268 L280.9088,409.5865 L280.7997,409.151 L280.6694,408.7214 L280.5181,408.2987 L280.3463,407.8839 L280.1544,407.4781 L279.9427,407.0822 L279.7119,406.6971 L279.4625,406.3238 L279.1951,405.9632 L278.9103,405.6161 L278.6088,405.2835 L278.2914,404.9661 L277.9587,404.6646 L277.6117,404.3798 L277.2511,404.1123 L276.8778,403.8629 L276.4927,403.6321 L276.0968,403.4205 L275.6909,403.2285 L275.2762,403.0567 L274.8535,402.9055 L274.4238,402.7751 L273.9883,402.6661 L273.548,402.5785 L273.1039,402.5126 L272.6572,402.4686 L272.2087,402.4466 L271.7598,402.4466 L271.3114,402.4686 L270.8646,402.5126 L270.4205,402.5785 L269.9802,402.6661 L269.5447,402.7751 L269.1151,402.9055 L268.6924,403.0567 L268.2776,403.2285 L267.8718,403.4205 L267.4759,403.6321 L267.0908,403.8629 L266.7175,404.1123 L266.3569,404.3798 L266.0099,404.6646 L265.6772,404.9661 L265.3598,405.2835 L265.0583,405.6161 L264.7735,405.9632 L264.506,406.3238 L264.2566,406.6971 L264.0258,407.0822 L263.8142,407.4781 L263.6222,407.8839 L263.4504,408.2987 L263.2992,408.7214 L263.1689,409.151 L263.0598,409.5865 L262.9722,410.0268 L262.9063,410.4709 L262.8623,410.9177 L262.8403,411.3661 L262.8403,411.815 L262.8623,412.2635 L262.9063,412.7102 L262.9722,413.1543 L263.0598,413.5946 L263.1689,414.0301 L263.2992,414.4597 L263.4504,414.8824 L263.6222,415.2972 L263.8142,415.7031 L264.0258,416.099 L264.2566,416.4841 L264.506,416.8574 L264.7735,417.218 L265.0583,417.565 L265.3598,417.8976 L265.6772,418.2151 L266.0099,418.5166 L266.3569,418.8014 L266.7175,419.0688 L267.0908,419.3182 L267.4759,419.549 L267.8718,419.7607 L268.2776,419.9526 L268.6924,420.1245 L269.1151,420.2757 L269.5447,420.406 L269.9802,420.5151 L270.4205,420.6027 L270.8646,420.6685 L271.3114,420.7126 L271.5591,420.7247 L271.5591,422.132 L271.5754,422.2141 L271.6075,422.2915 L271.654,422.3611 L274.9323,425.6394 L274.9323,440.3792 L274.9221,440.3815 L274.7556,440.4398 L274.5967,440.5163 L274.4473,440.6102 L274.3094,440.7202 L274.1847,440.8448 L274.0747,440.9828 L273.9809,441.1321 L273.9044,441.291 L273.8461,441.4575 L273.8069,441.6295 L273.7871,441.8047 L273.7871,441.9811 L273.8069,442.1564 L273.8461,442.3284 L273.9044,442.4948 L273.9809,442.6538 L274.0747,442.8031 L274.1847,442.941 L274.3094,443.0657 L274.4473,443.1757 L274.5967,443.2695 L274.7556,443.3461 L274.9221,443.4043 L275.0941,443.4436 L275.2693,443.4633 L275.4457,443.4633 L275.621,443.4436 L275.7929,443.4043 L275.9594,443.3461 L276.1183,443.2695 L276.2677,443.1757 L276.4056,443.0657 L276.5303,442.941 L276.6403,442.8031 L276.7341,442.6538 L276.8106,442.4948 L276.8689,442.3284 L276.9081,442.1564 L276.9279,441.9811 L276.9279,441.8047 L276.9081,441.6295 L276.8689,441.4575 L276.8106,441.291 L276.7341,441.1321 L276.6403,440.9828 L276.5303,440.8448 L276.4056,440.7202 L276.2677,440.6102 L276.1183,440.5163 L275.9594,440.4398 L275.7929,440.3815 L275.7827,440.3792 L275.7827,431.269 L289.2374,417.8144 L289.2839,417.7448 L289.3159,417.6674 L289.3323,417.5852 L289.3323,409.451 L289.3159,409.3689 L289.2839,409.2915 L289.2374,409.2219 L274.7782,394.7627 L274.7085,394.7161 L274.6311,394.6841 L274.549,394.6678 L263.8832,394.6678 L256.9323,387.7168 L256.9323,370.0691 L284.7292,342.2722 L347.051,342.2722 L349.2681,344.4892 L349.2681,347.3691 L348.3301,347.3691 L348.3301,352.2215 L351.0564,352.2215 L351.0564,347.3691 L350.1184,347.3691 L350.1184,344.2712 L350.1021,344.1891 L350.0701,344.1117 L350.0235,344.0421 L348.2536,342.2722 L358.571,342.2722 L359.7619,343.4631 L359.7619,370.4368 L351.8745,378.3242 L351.8279,378.3939 L351.7959,378.4713 L351.7795,378.5534 L351.7795,390.314 L349.7786,390.314 L349.7786,393.0404 L354.6309,393.0404 L354.6309,390.314 L352.6299,390.314 L352.6299,378.7714 L359.7619,371.6395 L359.7619,431.5348 L351.0564,440.2403 L351.0564,439.7786 L348.3301,439.7786 L348.3301,444.6309 L351.0564,444.6309 L351.0564,441.4429 L360.5174,431.9819 z" stroke="#000000" stroke-width="0.24" fill="none" />
  <path d="M281.452,445.0224 L281.452,443.4067 L281.4622,443.4043 L281.6287,443.3461 L281.7876,443.2695 L281.937,443.1757 L282.0749,443.0657 L282.1996,442.941 L282.3096,442.8031 L282.4034,442.6538 L282.4799,442.4948 L282.5382,442.3284 L282.5405,442.3181 L284.1563,442.3181 L284.1563,442.5154 L283.6798,443.6656 L282.7995,444.546 L281.6493,445.0224 z" stroke="#000000" stroke-width="0.24" fill="none" />
  <path d="M335.1005,428.3663 L332.3784,427.6369 L329.9377,426.2278 L327.945,424.2351 L326.5359,421.7945 L325.8065,419.0723 L325.8065,416.2542 L326.5359,413.532 L327.945,411.0914 L329.9377,409.0987 L332.3784,407.6896 L334.3152,407.1706 L334.4162,407.1203 L334.4896,407.0346 L334.5254,406.8968 L334.5254,385.1033 L334.5029,384.9927 L334.4391,384.8997 L334.3152,384.8295 L332.3784,384.3105 L329.9377,382.9014 L327.945,380.9087 L326.5359,378.468 L325.8065,375.7459 L325.8065,372.9277 L326.5359,370.2056 L327.945,367.765 L329.9377,365.7722 L332.3784,364.3632 L335.1005,363.6338 L337.9187,363.6338 L340.6408,364.3632 L343.0815,365.7722 L345.0742,367.765 L346.4832,370.2056 L347.2126,372.9277 L347.2126,375.7459 L346.4832,378.468 L345.0742,380.9087 L343.0815,382.9014 L340.6408,384.3105 L338.7039,384.8295 L338.603,384.8798 L338.5296,384.9655 L338.4938,385.1033 L338.4938,406.8968 L338.5163,407.0074 L338.5801,407.1004 L338.7039,407.1706 L340.6408,407.6896 L343.0815,409.0987 L345.0742,411.0914 L346.4832,413.532 L347.2126,416.2542 L347.2126,419.0723 L346.4832,421.7945 L345.0742,424.2351 L343.0815,426.2278 L340.6408,427.6369 L337.9187,428.3663 z" stroke="#000000" stroke-width="0.24" fill="none" />
  <path d="M298.8031,432.8286 L298.8031,431.8447 L299.5325,429.1226 L300.9416,426.6819 L302.9344,424.6892 L305.375,423.2801 L308.0971,422.5507 L309.081,422.5507 L309.081,424.1197 L308.8333,424.1318 L308.3865,424.1758 L307.9424,424.2417 L307.5021,424.3293 L307.0667,424.4384 L306.637,424.5687 L306.2143,424.7199 L305.7996,424.8917 L305.3937,425.0837 L304.9978,425.2953 L304.6127,425.5261 L304.2394,425.7755 L303.8788,426.043 L303.5318,426.3278 L303.1991,426.6293 L302.8817,426.9467 L302.5802,427.2794 L302.2954,427.6264 L302.028,427.987 L301.7785,428.3603 L301.5477,428.7454 L301.3361,429.1413 L301.1441,429.5471 L300.9724,429.9619 L300.8211,430.3846 L300.6908,430.8142 L300.5817,431.2497 L300.4941,431.69 L300.4282,432.1341 L300.3842,432.5809 L300.3721,432.8286 z" stroke="#000000" stroke-width="0.24" fill="none" />
  <path d="M270.5752,391.1125 L267.8531,390.3831 L265.4124,388.974 L263.4197,386.9813 L262.0106,384.5407 L261.2812,381.8185 L261.2812,379.0004 L262.0106,376.2782 L263.4197,373.8376 L265.4124,371.8449 L267.8531,370.4358 L270.5752,369.7064 L273.3933,369.7064 L276.1155,370.4358 L277.8521,371.4384 L277.959,371.4742 L278.0715,371.4655 L278.1942,371.3934 L292.5235,357.0641 L293.2528,356.762 L298.7397,356.762 L298.8503,356.7396 L298.9434,356.6758 L299.0135,356.5519 L299.5325,354.615 L300.9416,352.1744 L302.9344,350.1817 L305.375,348.7726 L308.0971,348.0432 L310.9153,348.0432 L313.6374,348.7726 L316.0781,350.1817 L318.0708,352.1744 L319.4799,354.615 L320.2093,357.3372 L320.2093,360.1553 L319.4799,362.8775 L318.0708,365.3181 L316.0781,367.3108 L313.6374,368.7199 L310.9153,369.4493 L308.0971,369.4493 L305.375,368.7199 L302.9344,367.3108 L300.9416,365.3181 L299.5325,362.8775 L299.0135,360.9406 L298.9633,360.8396 L298.8775,360.7663 L298.7397,360.7305 L294.5868,360.7305 L294.4762,360.753 L294.3864,360.8135 L281.0004,374.1995 L280.9381,374.2936 L280.9174,374.4045 L280.9553,374.5417 L281.9579,376.2782 L282.6873,379.0004 L282.6873,381.8185 L281.9579,384.5407 L280.5488,386.9813 L278.5561,388.974 L276.1155,390.3831 L273.3933,391.1125 z" stroke="#000000" stroke-width="0.24" fill="none" />
  <path d="M318.6404,432.8286 L318.6282,432.5809 L318.5842,432.1341 L318.5183,431.69 L318.4307,431.2497 L318.3216,430.8142 L318.1913,430.3846 L318.0401,429.9619 L317.8683,429.5471 L317.6763,429.1413 L317.4647,428.7454 L317.2339,428.3603 L316.9844,427.987 L316.717,427.6264 L316.4322,427.2794 L316.1307,426.9467 L315.8133,426.6293 L315.4806,426.3278 L315.1336,426.043 L314.773,425.7755 L314.3997,425.5261 L314.0146,425.2953 L313.6187,425.0837 L313.2128,424.8917 L312.7981,424.7199 L312.3754,424.5687 L311.9458,424.4384 L311.5103,424.3293 L311.0699,424.2417 L310.6259,424.1758 L310.1791,424.1318 L309.9314,424.1197 L309.9314,422.5507 L310.9153,422.5507 L313.6374,423.2801 L316.0781,424.6892 L318.0708,426.6819 L319.4799,429.1226 L320.2093,431.8447 L320.2093,432.8286 z" stroke="#000000" stroke-width="0.24" fill="none" />
  <path d="M349.3218,412.0353 L348.7487,411.798 L348.3102,411.3594 L348.0728,410.7864 L348.0728,406.8649 L348.3102,406.2919 L348.7487,405.8534 L349.3218,405.616 L349.937,405.616 L350.0476,405.5935 L350.1406,405.5298 L350.2014,405.4347 L350.2205,405.3325 L350.2205,403.5286 L350.1981,403.418 L350.1342,403.325 L350.0392,403.2642 L349.937,403.2451 L349.4684,403.2451 L348.8954,403.0078 L348.4569,402.5692 L348.2195,401.9962 L348.2195,398.6496 L348.4569,398.0765 L348.8954,397.638 L349.4684,397.4006 L354.941,397.4006 L355.5141,397.638 L355.9526,398.0765 L356.19,398.6496 L356.19,401.9962 L355.9526,402.5692 L355.5141,403.0078 L354.941,403.2451 L354.4725,403.2451 L354.3619,403.2675 L354.2689,403.3313 L354.2081,403.4264 L354.189,403.5286 L354.189,405.3325 L354.2115,405.4431 L354.2752,405.5361 L354.3703,405.5969 L354.4725,405.616 L355.0877,405.616 L355.6608,405.8534 L356.0993,406.2919 L356.3367,406.8649 L356.3367,410.7864 L356.0993,411.3594 L355.6608,411.798 L355.0877,412.0353 z" stroke="#000000" stroke-width="0.24" fill="none" />
  <path d="M337.1825,426.7852 L337.6292,426.7412 L338.0734,426.6753 L338.5137,426.5877 L338.9492,426.4787 L339.3788,426.3483 L339.8015,426.1971 L340.2162,426.0253 L340.6221,425.8333 L341.018,425.6217 L341.4031,425.3909 L341.7764,425.1415 L342.137,424.8741 L342.484,424.5892 L342.8167,424.2878 L343.1341,423.9703 L343.4356,423.6377 L343.7204,423.2906 L343.9879,422.93 L344.2373,422.5567 L344.4681,422.1717 L344.6797,421.7757 L344.8716,421.3699 L345.0435,420.9551 L345.1947,420.5324 L345.325,420.1028 L345.4341,419.6673 L345.5217,419.227 L345.5876,418.7829 L345.6316,418.3361 L345.6536,417.8877 L345.6536,417.4388 L345.6316,416.9904 L345.5876,416.5436 L345.5217,416.0995 L345.4341,415.6592 L345.325,415.2237 L345.1947,414.7941 L345.0435,414.3714 L344.8716,413.9566 L344.6797,413.5508 L344.4681,413.1548 L344.2373,412.7697 L343.9879,412.3965 L343.7204,412.0359 L343.4356,411.6888 L343.1341,411.3562 L342.8167,411.0387 L342.484,410.7372 L342.137,410.4524 L341.7764,410.185 L341.4031,409.9356 L341.018,409.7048 L340.6221,409.4931 L340.2162,409.3012 L339.8015,409.1294 L339.3788,408.9781 L338.9492,408.8478 L338.5137,408.7387 L338.0734,408.6512 L337.6292,408.5853 L337.1825,408.5413 L336.9348,408.5291 L336.9348,383.4709 L337.1825,383.4588 L337.6292,383.4148 L338.0734,383.3489 L338.5137,383.2613 L338.9492,383.1522 L339.3788,383.0219 L339.8015,382.8707 L340.2162,382.6989 L340.6221,382.5069 L341.018,382.2953 L341.4031,382.0645 L341.7764,381.8151 L342.137,381.5476 L342.484,381.2628 L342.8167,380.9613 L343.1341,380.6439 L343.4356,380.3112 L343.7204,379.9642 L343.9879,379.6036 L344.2373,379.2303 L344.4681,378.8452 L344.6797,378.4493 L344.8716,378.0435 L345.0435,377.6287 L345.1947,377.206 L345.325,376.7764 L345.4341,376.3409 L345.5217,375.9006 L345.5876,375.4565 L345.6316,375.0097 L345.6536,374.5613 L345.6536,374.1123 L345.6316,373.6639 L345.5876,373.2172 L345.5217,372.7731 L345.4341,372.3327 L345.325,371.8972 L345.1947,371.4677 L345.0435,371.0449 L344.8716,370.6302 L344.6797,370.2243 L344.4681,369.8284 L344.2373,369.4433 L343.9879,369.07 L343.7204,368.7094 L343.4356,368.3624 L343.1341,368.0298 L342.8167,367.7123 L342.484,367.4108 L342.137,367.126 L341.7764,366.8586 L341.4031,366.6091 L341.018,366.3783 L340.6221,366.1667 L340.2162,365.9748 L339.8015,365.8029 L339.3788,365.6517 L338.9492,365.5214 L338.5137,365.4123 L338.0734,365.3247 L337.6292,365.2589 L337.1825,365.2148 L336.7341,365.1928 L336.2851,365.1928 L335.8367,365.2148 L335.39,365.2589 L334.9459,365.3247 L334.5055,365.4123 L334.07,365.5214 L333.6404,365.6517 L333.2177,365.8029 L332.8029,365.9748 L332.3971,366.1667 L332.0012,366.3783 L331.6161,366.6091 L331.2428,366.8586 L330.8822,367.126 L330.5352,367.4108 L330.2025,367.7123 L329.8851,368.0298 L329.5836,368.3624 L329.2988,368.7094 L329.0313,369.07 L328.7819,369.4433 L328.5511,369.8284 L328.3395,370.2243 L328.1476,370.6302 L327.9757,371.0449 L327.8245,371.4677 L327.6942,371.8972 L327.5851,372.3327 L327.4975,372.7731 L327.4316,373.2172 L327.3876,373.6639 L327.3656,374.1123 L327.3656,374.5613 L327.3876,375.0097 L327.4316,375.4565 L327.4975,375.9006 L327.5851,376.3409 L327.6942,376.7764 L327.8245,377.206 L327.9757,377.6287 L328.1476,378.0435 L328.3395,378.4493 L328.5511,378.8452 L328.7819,379.2303 L329.0313,379.6036 L329.2988,379.9642 L329.5836,380.3112 L329.8851,380.6439 L330.2025,380.9613 L330.5352,381.2628 L330.8822,381.5476 L331.2428,381.8151 L331.6161,382.0645 L332.0012,382.2953 L332.3971,382.5069 L332.8029,382.6989 L333.2177,382.8707 L333.6404,383.0219 L334.07,383.1522 L334.5055,383.2613 L334.9459,383.3489 L335.39,383.4148 L335.8367,383.4588 L336.0844,383.4709 L336.0844,408.5291 L335.8367,408.5413 L335.39,408.5853 L334.9459,408.6512 L334.5055,408.7387 L334.07,408.8478 L333.6404,408.9781 L333.2177,409.1294 L332.8029,409.3012 L332.3971,409.4931 L332.0012,409.7048 L331.6161,409.9356 L331.2428,410.185 L330.8822,410.4524 L330.5352,410.7372 L330.2025,411.0387 L329.8851,411.3562 L329.5836,411.6888 L329.2988,412.0359 L329.0313,412.3965 L328.7819,412.7697 L328.5511,413.1548 L328.3395,413.5508 L328.1476,413.9566 L327.9757,414.3714 L327.8245,414.7941 L327.6942,415.2237 L327.5851,415.6592 L327.4975,416.0995 L327.4316,416.5436 L327.3876,416.9904 L327.3656,417.4388 L327.3656,417.8877 L327.3876,418.3361 L327.4316,418.7829 L327.4975,419.227 L327.5851,419.6673 L327.6942,420.1028 L327.8245,420.5324 L327.9757,420.9551 L328.1476,421.3699 L328.3395,421.7757 L328.5511,422.1717 L328.7819,422.5567 L329.0313,422.93 L329.2988,423.2906 L329.5836,423.6377 L329.8851,423.9703 L330.2025,424.2878 L330.5352,424.5892 L330.8822,424.8741 L331.2428,425.1415 L331.6161,425.3909 L332.0012,425.6217 L332.3971,425.8333 L332.8029,426.0253 L333.2177,426.1971 L333.6404,426.3483 L334.07,426.4787 L334.5055,426.5877 L334.9459,426.6753 L335.39,426.7412 L335.8367,426.7852 L336.2851,426.8073 L336.7341,426.8073 z" stroke="#000000" stroke-width="0.24" fill="none" />
  <path d="M354.7776,407.175 L352.6299,407.175 L352.6299,401.686 L354.6309,401.686 L354.6309,398.9597 L349.7786,398.9597 L349.7786,401.686 L351.7795,401.686 L351.7795,407.175 L349.6319,407.175 L349.6319,410.4763 L354.7776,410.4763 z" stroke="#000000" stroke-width="0.24" fill="none" />
  <path d="M309.9314,443.9568 L309.9314,442.3879 L310.1791,442.3758 L310.6259,442.3318 L311.0699,442.2659 L311.5103,442.1783 L311.9458,442.0692 L312.3754,441.9389 L312.7981,441.7877 L313.2128,441.6158 L313.6187,441.4239 L314.0146,441.2122 L314.3997,440.9814 L314.773,440.732 L315.1336,440.4646 L315.4806,440.1798 L315.8133,439.8783 L316.1307,439.5609 L316.4322,439.2282 L316.717,438.8812 L316.9844,438.5206 L317.2339,438.1473 L317.4647,437.7622 L317.6763,437.3663 L317.8683,436.9604 L318.0401,436.5457 L318.1913,436.123 L318.3216,435.6934 L318.4307,435.2578 L318.5183,434.8175 L318.5842,434.3734 L318.6282,433.9267 L318.6404,433.679 L320.2093,433.679 L320.2093,434.6629 L319.4799,437.385 L318.0708,439.8257 L316.0781,441.8184 L313.6374,443.2274 L310.9153,443.9568 z" stroke="#000000" stroke-width="0.24" fill="none" />
  <path d="M272.6572,389.5314 L273.1039,389.4875 L273.548,389.4216 L273.9883,389.334 L274.4238,389.2249 L274.8535,389.0946 L275.2762,388.9433 L275.6909,388.7715 L276.0968,388.5796 L276.4927,388.368 L276.8778,388.1371 L277.2511,387.8877 L277.6117,387.6203 L277.9587,387.3355 L278.2914,387.034 L278.6088,386.7165 L278.9103,386.3839 L279.1951,386.0368 L279.4625,385.6762 L279.7119,385.303 L279.9427,384.9179 L280.1544,384.522 L280.3463,384.1161 L280.5181,383.7014 L280.6694,383.2786 L280.7997,382.849 L280.9088,382.4135 L280.9964,381.9732 L281.0623,381.5291 L281.1062,381.0823 L281.1283,380.6339 L281.1283,380.185 L281.1062,379.7366 L281.0623,379.2898 L280.9964,378.8457 L280.9088,378.4054 L280.7997,377.9699 L280.6694,377.5403 L280.5181,377.1176 L280.3463,376.7028 L280.1544,376.297 L279.9427,375.9011 L279.7119,375.516 L279.4625,375.1427 L279.1951,374.7821 L278.9103,374.4351 L278.7437,374.2513 L293.8236,359.1714 L300.3721,359.1714 L300.3842,359.4191 L300.4282,359.8659 L300.4941,360.31 L300.5817,360.7503 L300.6908,361.1858 L300.8211,361.6154 L300.9724,362.0381 L301.1441,362.4529 L301.3361,362.8587 L301.5477,363.2547 L301.7785,363.6397 L302.028,364.013 L302.2954,364.3736 L302.5802,364.7207 L302.8817,365.0533 L303.1991,365.3708 L303.5318,365.6723 L303.8788,365.9571 L304.2394,366.2245 L304.6127,366.4739 L304.9978,366.7047 L305.3937,366.9164 L305.7996,367.1083 L306.2143,367.2801 L306.637,367.4314 L307.0667,367.5617 L307.5021,367.6708 L307.9424,367.7584 L308.3865,367.8242 L308.8333,367.8682 L309.2817,367.8903 L309.7307,367.8903 L310.1791,367.8682 L310.6259,367.8242 L311.0699,367.7584 L311.5103,367.6708 L311.9458,367.5617 L312.3754,367.4314 L312.7981,367.2801 L313.2128,367.1083 L313.6187,366.9164 L314.0146,366.7047 L314.3997,366.4739 L314.773,366.2245 L315.1336,365.9571 L315.4806,365.6723 L315.8133,365.3708 L316.1307,365.0533 L316.4322,364.7207 L316.717,364.3736 L316.9844,364.013 L317.2339,363.6397 L317.4647,363.2547 L317.6763,362.8587 L317.8683,362.4529 L318.0401,362.0381 L318.1913,361.6154 L318.3216,361.1858 L318.4307,360.7503 L318.5183,360.31 L318.5842,359.8659 L318.6282,359.4191 L318.6502,358.9707 L318.6502,358.5218 L318.6282,358.0734 L318.5842,357.6266 L318.5183,357.1825 L318.4307,356.7422 L318.3216,356.3067 L318.1913,355.8771 L318.0401,355.4544 L317.8683,355.0396 L317.6763,354.6338 L317.4647,354.2379 L317.2339,353.8528 L316.9844,353.4795 L316.717,353.1189 L316.4322,352.7719 L316.1307,352.4392 L315.8133,352.1217 L315.4806,351.8203 L315.1336,351.5355 L314.773,351.268 L314.3997,351.0186 L314.0146,350.7878 L313.6187,350.5761 L313.2128,350.3842 L312.7981,350.2124 L312.3754,350.0612 L311.9458,349.9308 L311.5103,349.8217 L311.0699,349.7342 L310.6259,349.6683 L310.1791,349.6243 L309.7307,349.6023 L309.2817,349.6023 L308.8333,349.6243 L308.3865,349.6683 L307.9424,349.7342 L307.5021,349.8217 L307.0667,349.9308 L306.637,350.0612 L306.2143,350.2124 L305.7996,350.3842 L305.3937,350.5761 L304.9978,350.7878 L304.6127,351.0186 L304.2394,351.268 L303.8788,351.5355 L303.5318,351.8203 L303.1991,352.1217 L302.8817,352.4392 L302.5802,352.7719 L302.2954,353.1189 L302.028,353.4795 L301.7785,353.8528 L301.5477,354.2379 L301.3361,354.6338 L301.1441,355.0396 L300.9724,355.4544 L300.8211,355.8771 L300.6908,356.3067 L300.5817,356.7422 L300.4941,357.1825 L300.4282,357.6266 L300.3842,358.0734 L300.3721,358.3211 L293.6056,358.3211 L293.5235,358.3374 L293.4461,358.3694 L293.3764,358.416 L278.1424,373.65 L277.9587,373.4835 L277.6117,373.1987 L277.2511,372.9312 L276.8778,372.6818 L276.4927,372.451 L276.0968,372.2394 L275.6909,372.0474 L275.2762,371.8756 L274.8535,371.7244 L274.4238,371.5941 L273.9883,371.485 L273.548,371.3974 L273.1039,371.3315 L272.6572,371.2875 L272.2087,371.2655 L271.7598,371.2655 L271.3114,371.2875 L270.8646,371.3315 L270.4205,371.3974 L269.9802,371.485 L269.5447,371.5941 L269.1151,371.7244 L268.6924,371.8756 L268.2776,372.0474 L267.8718,372.2394 L267.4759,372.451 L267.0908,372.6818 L266.7175,372.9312 L266.3569,373.1987 L266.0099,373.4835 L265.6772,373.785 L265.3598,374.1024 L265.0583,374.4351 L264.7735,374.7821 L264.506,375.1427 L264.2566,375.516 L264.0258,375.9011 L263.8142,376.297 L263.6222,376.7028 L263.4504,377.1176 L263.2992,377.5403 L263.1689,377.9699 L263.0598,378.4054 L262.9722,378.8457 L262.9063,379.2898 L262.8623,379.7366 L262.8403,380.185 L262.8403,380.6339 L262.8623,381.0823 L262.9063,381.5291 L262.9722,381.9732 L263.0598,382.4135 L263.1689,382.849 L263.2992,383.2786 L263.4504,383.7014 L263.6222,384.1161 L263.8142,384.522 L264.0258,384.9179 L264.2566,385.303 L264.506,385.6762 L264.7735,386.0368 L265.0583,386.3839 L265.3598,386.7165 L265.6772,387.034 L266.0099,387.3355 L266.3569,387.6203 L266.7175,387.8877 L267.0908,388.1371 L267.4759,388.368 L267.8718,388.5796 L268.2776,388.7715 L268.6924,388.9433 L269.1151,389.0946 L269.5447,389.2249 L269.9802,389.334 L270.4205,389.4216 L270.8646,389.4875 L271.3114,389.5314 L271.7598,389.5535 L272.2087,389.5535 z" stroke="#000000" stroke-width="0.24" fill="none" />
  <path d="M330.584,446.3367 L330.011,446.0993 L329.5725,445.6608 L329.3351,445.0877 L329.3351,439.3217 L329.5725,438.7487 L330.011,438.3102 L330.584,438.0728 L334.5055,438.0728 L335.0786,438.3102 L335.5171,438.7487 L335.7545,439.3217 L335.7545,439.937 L335.7769,440.0476 L335.8407,440.1406 L335.9357,440.2014 L336.0379,440.2205 L337.8419,440.2205 L337.9525,440.1981 L338.0455,440.1342 L338.1063,440.0392 L338.1253,439.937 L338.1253,439.4684 L338.3627,438.8954 L338.8012,438.4569 L339.3743,438.2195 L342.7209,438.2195 L343.2939,438.4569 L343.7325,438.8954 L343.9698,439.4684 L343.9698,444.941 L343.7325,445.5141 L343.2939,445.9526 L342.7209,446.19 L339.3743,446.19 L338.8012,445.9526 L338.3627,445.5141 L338.1253,444.941 L338.1253,444.4725 L338.1029,444.3619 L338.0391,444.2689 L337.9441,444.2081 L337.8419,444.189 L336.0379,444.189 L335.9274,444.2115 L335.8343,444.2752 L335.7735,444.3703 L335.7545,444.4725 L335.7545,445.0877 L335.5171,445.6608 L335.0786,446.0993 L334.5055,446.3367 z" stroke="#000000" stroke-width="0.24" fill="none" />
  <path d="M330.584,353.9272 L330.011,353.6898 L329.5725,353.2513 L329.3351,352.6783 L329.3351,346.9123 L329.5725,346.3393 L330.011,345.9007 L330.584,345.6634 L334.5055,345.6634 L335.0786,345.9007 L335.5171,346.3393 L335.7545,346.9123 L335.7545,347.5276 L335.7769,347.6382 L335.8407,347.7312 L335.9357,347.792 L336.0379,347.811 L337.8419,347.811 L337.9525,347.7886 L338.0455,347.7248 L338.1063,347.6298 L338.1253,347.5276 L338.1253,347.059 L338.3627,346.486 L338.8012,346.0474 L339.3743,345.8101 L342.7209,345.8101 L343.2939,346.0474 L343.7325,346.486 L343.9698,347.059 L343.9698,352.5316 L343.7325,353.1046 L343.2939,353.5432 L342.7209,353.7805 L339.3743,353.7805 L338.8012,353.5432 L338.3627,353.1046 L338.1253,352.5316 L338.1253,352.063 L338.1029,351.9525 L338.0391,351.8594 L337.9441,351.7986 L337.8419,351.7795 L336.0379,351.7795 L335.9274,351.802 L335.8343,351.8658 L335.7735,351.9608 L335.7545,352.063 L335.7545,352.6783 L335.5171,353.2513 L335.0786,353.6898 L334.5055,353.9272 z" stroke="#000000" stroke-width="0.24" fill="none" />
  <path d="M249.3071,447.0237 L249.3287,447.5178 L249.3932,448.0081 L249.5003,448.491 L249.649,448.9626 L249.8383,449.4196 L250.0667,449.8583 L250.3324,450.2754 L250.6335,450.6678 L250.9676,451.0324 L251.3322,451.3666 L251.7246,451.6677 L252.1418,451.9334 L252.5805,452.1618 L253.0374,452.351 L253.5091,452.4998 L253.9919,452.6068 L254.4823,452.6714 L254.9764,452.6929 L357.0237,452.6929 L357.5178,452.6714 L358.0081,452.6068 L358.491,452.4998 L358.9626,452.351 L359.4196,452.1618 L359.8583,451.9334 L360.2754,451.6677 L360.6678,451.3666 L361.0324,451.0324 L361.3666,450.6678 L361.6677,450.2754 L361.9334,449.8583 L362.1618,449.4196 L362.351,448.9626 L362.4998,448.491 L362.6068,448.0081 L362.6714,447.5178 L362.6929,447.0237 L362.6929,344.9764 L362.6714,344.4823 L362.6068,343.9919 L362.4998,343.5091 L362.351,343.0374 L362.1618,342.5804 L361.9334,342.1418 L361.6677,341.7246 L361.3666,341.3322 L361.0324,340.9676 L360.6678,340.6335 L360.2754,340.3324 L359.8583,340.0667 L359.4196,339.8383 L358.9626,339.649 L358.491,339.5003 L358.0081,339.3932 L357.5178,339.3287 L357.0237,339.3071 L254.9764,339.3071 L254.4823,339.3287 L253.9919,339.3932 L253.5091,339.5003 L253.0374,339.649 L252.5805,339.8383 L252.1418,340.0667 L251.7246,340.3324 L251.3322,340.6335 L250.9676,340.9676 L250.6335,341.3322 L250.3324,341.7246 L250.0667,342.1418 L249.8383,342.5804 L249.649,343.0374 L249.5003,343.5091 L249.3932,343.9919 L249.3287,344.4823 L249.3071,344.9764 z" stroke="#000000" stroke-width="0.24" fill="none" />
</svg>